HIERARCHY
ROOT Hips
{
	OFFSET -0.001795 -0.223333 0.028219
	CHANNELS 6 Xposition Yposition Zposition Zrotation Yrotation Xrotation 
	JOINT LeftUpLeg
	{
		OFFSET 0.069520 -0.091406 -0.006815
		CHANNELS 3 Zrotation Yrotation Xrotation
		JOINT LeftLeg
		{
			OFFSET 0.034277 -0.375199 -0.004496
			CHANNELS 3 Zrotation Yrotation Xrotation
			JOINT LeftFoot
			{
				OFFSET -0.013596 -0.397961 -0.043693
				CHANNELS 3 Zrotation Yrotation Xrotation
				JOINT LeftToe
				{
					OFFSET 0.026358 -0.055791 0.119288
					CHANNELS 3 Zrotation Yrotation Xrotation
					End Site
					{
						OFFSET 0.000000 0.000000 0.000000
					}
				}
			}
		}
	}
	JOINT RightUpLeg
	{
		OFFSET -0.067670 -0.090522 -0.004320
		CHANNELS 3 Zrotation Yrotation Xrotation
		JOINT RightLeg
		{
			OFFSET -0.038290 -0.382569 -0.008850
			CHANNELS 3 Zrotation Yrotation Xrotation
			JOINT RightFoot
			{
				OFFSET 0.015774 -0.398415 -0.042312
				CHANNELS 3 Zrotation Yrotation Xrotation
				JOINT RightToe
				{
					OFFSET -0.025372 -0.048144 0.123348
					CHANNELS 3 Zrotation Yrotation Xrotation
					End Site
					{
						OFFSET 0.000000 0.000000 0.000000
					}
				}
			}
		}
	}
	JOINT Spine
	{
		OFFSET -0.002533 0.108963 -0.026696
		CHANNELS 3 Zrotation Yrotation Xrotation
		JOINT Spine1
		{
			OFFSET 0.005487 0.135180 0.001092
			CHANNELS 3 Zrotation Yrotation Xrotation
			JOINT Spine2
			{
				OFFSET 0.001457 0.052922 0.025425
				CHANNELS 3 Zrotation Yrotation Xrotation
				JOINT Neck
				{
					OFFSET -0.002778 0.213870 -0.042857
					CHANNELS 3 Zrotation Yrotation Xrotation
					JOINT Head
					{
						OFFSET 0.005152 0.064970 0.051349
						CHANNELS 3 Zrotation Yrotation Xrotation
						End Site
						{
							OFFSET 0.000000 0.000000 0.000000
						}
					}
				}
				JOINT LeftShoulder
				{
					OFFSET 0.078845 0.121749 -0.034090
					CHANNELS 3 Zrotation Yrotation Xrotation
					JOINT LeftArm
					{
						OFFSET 0.090977 0.030469 -0.008868
						CHANNELS 3 Zrotation Yrotation Xrotation
						JOINT LeftForeArm
						{
							OFFSET 0.259612 -0.012772 -0.027456
							CHANNELS 3 Zrotation Yrotation Xrotation
							JOINT LeftHand
							{
								OFFSET 0.249234 0.008986 -0.001171
								CHANNELS 3 Zrotation Yrotation Xrotation
								End Site
								{
									OFFSET 0.000000 0.000000 0.000000
								}
							}
						}
					}
				}
				JOINT RightShoulder
				{
					OFFSET -0.081759 0.118833 -0.038615
					CHANNELS 3 Zrotation Yrotation Xrotation
					JOINT RightArm
					{
						OFFSET -0.096012 0.032551 -0.009143
						CHANNELS 3 Zrotation Yrotation Xrotation
						JOINT RightForeArm
						{
							OFFSET -0.253742 -0.013329 -0.021401
							CHANNELS 3 Zrotation Yrotation Xrotation
							JOINT RightHand
							{
								OFFSET -0.255298 0.007772 -0.005559
								CHANNELS 3 Zrotation Yrotation Xrotation
								End Site
								{
									OFFSET 0.000000 0.000000 0.000000
								}
							}
						}
					}
				}
			}
		}
	}
}
MOTION
Frames: 18
Frame Time: 0.050000
-0.001960 0.942034 0.690720 -2.027259 -56.370107 2.946020 -0.296919 -0.110713 -11.224137 -0.102650 0.787759 7.343888 4.708625 6.867411 10.441310 0.000000 0.000000 0.000000 -2.813561 0.924450 -8.215931 20.315708 6.429317 51.159373 -1.193116 -16.086566 28.168246 0.000000 0.000000 0.000000 -12.863414 3.057543 12.348174 9.950081 -2.561254 -17.755696 -1.850010 4.292975 29.192511 -0.878805 -1.954285 -37.768474 0.000000 0.000000 0.000000 -35.455116 1.543709 10.560412 -32.939487 -20.267415 -4.616360 0.881063 -41.781867 3.242285 0.000000 0.000000 0.000000 23.459091 16.450307 -3.223546 41.361699 -5.766356 -4.599343 22.654888 45.171845 6.516761 0.000000 0.000000 0.000000 
-0.033725 0.946973 0.711169 -2.489847 -56.072873 2.935979 0.086690 -0.145306 -7.138570 -0.234287 0.594432 5.296743 4.614506 6.956897 10.113702 0.000000 0.000000 0.000000 -3.578940 1.589569 -12.959207 21.882089 5.391452 49.232939 -9.841318 -21.650225 4.556025 0.000000 0.000000 0.000000 -12.253913 3.060775 13.342664 10.311132 -2.414103 -19.318587 -2.885774 2.829411 30.550957 -2.219284 -1.526489 -39.400022 0.000000 0.000000 0.000000 -33.448016 1.246849 10.898702 -33.304848 -23.854685 -3.735917 4.626877 -44.976082 2.480046 0.000000 0.000000 0.000000 23.991244 17.154307 -3.813819 40.453115 -6.635709 -4.427993 24.291993 47.281833 7.203532 0.000000 0.000000 0.000000 
-0.065762 0.949530 0.729722 -2.506095 -55.092145 2.646552 0.064457 -0.072605 -3.539095 0.244009 0.314198 3.672239 4.168613 6.480615 9.619128 0.000000 0.000000 0.000000 -4.363741 2.053980 -15.551862 16.581310 4.338285 38.137770 -11.708936 -19.069038 -7.547094 0.000000 0.000000 0.000000 -11.553916 2.909038 13.784653 10.721818 -2.591856 -18.546336 -3.547585 1.024994 29.810431 -2.241353 -1.629504 -39.352295 0.000000 0.000000 0.000000 -33.218062 0.371640 11.875738 -32.314344 -26.956814 -2.990054 11.250561 -47.310872 -0.000969 0.000000 0.000000 0.000000 23.885836 17.639472 -3.996835 40.580270 -6.508294 -4.207375 26.720826 48.729864 8.186537 0.000000 0.000000 0.000000 
-0.098539 0.950458 0.745868 -2.620787 -55.078603 2.534919 1.060737 0.217585 -1.072009 -0.641516 0.566422 3.914145 3.888799 6.247469 9.135755 0.000000 0.000000 0.000000 -3.971440 2.236104 -16.524900 7.826955 2.608291 22.924478 -7.009943 -12.054323 -1.315427 0.000000 0.000000 0.000000 -11.313383 3.085399 14.959354 12.364629 -2.655745 -19.422395 -4.442243 0.488248 30.326373 -2.852090 -1.362934 -40.512275 0.000000 0.000000 0.000000 -32.921007 0.060689 12.176604 -31.428419 -29.860654 -2.381009 16.190069 -49.548913 -1.964930 0.000000 0.000000 0.000000 24.263505 17.444322 -4.395507 39.899822 -6.766033 -4.125366 28.406540 49.953794 9.134421 0.000000 0.000000 0.000000 
-0.133211 0.949886 0.760043 -3.058336 -54.966931 3.281741 1.827982 0.475974 0.889787 -0.428285 0.515782 3.904066 3.735070 6.162485 8.778902 0.000000 0.000000 0.000000 -3.812564 2.382598 -17.207541 5.390909 1.010927 11.879622 -1.661559 -12.349300 10.965574 0.000000 0.000000 0.000000 -10.717520 2.897050 15.014076 14.066761 -2.856771 -19.157212 -5.310229 0.301050 30.801222 -3.756262 -0.876619 -41.891955 0.000000 0.000000 0.000000 -32.227899 0.597543 11.633242 -31.229205 -31.612329 -1.979843 19.581847 -50.640471 -3.158389 0.000000 0.000000 0.000000 24.407352 17.792203 -4.358692 39.421727 -6.459524 -3.886015 29.253478 52.210521 9.906327 0.000000 0.000000 0.000000 
-0.171154 0.947318 0.773483 -3.522094 -55.149681 3.832394 3.050999 0.677270 1.296292 -0.549965 1.013038 7.843883 3.155593 5.618054 7.243234 0.000000 0.000000 0.000000 -3.462980 2.336586 -16.944013 5.463683 0.722039 8.861170 -1.149743 -16.716762 20.235333 0.000000 0.000000 0.000000 -9.300847 2.436944 14.818980 13.248780 -3.062792 -17.328924 -3.824655 0.325342 28.319418 -5.085981 -0.348601 -39.996866 0.000000 0.000000 0.000000 -33.984472 1.410869 11.353325 -30.050578 -31.375857 -2.185955 16.376825 -51.676264 -2.101106 0.000000 0.000000 0.000000 23.308338 17.255929 -3.949743 40.169142 -6.849502 -4.334795 29.413876 52.885115 10.229320 0.000000 0.000000 0.000000 
-0.212702 0.944658 0.786702 -3.799169 -54.773600 4.258855 5.643243 0.973236 -0.908404 -1.699431 3.230836 16.744301 1.312104 2.367488 6.683212 0.000000 0.000000 0.000000 -3.083826 2.093615 -15.791702 6.694837 0.812992 10.057857 -2.340711 -17.727485 19.780980 0.000000 0.000000 0.000000 -7.398483 1.883844 14.745246 13.623758 -2.955437 -18.301119 -3.797611 1.492824 27.953426 -5.615229 0.029662 -39.671596 0.000000 0.000000 0.000000 -36.047678 1.109200 11.855381 -30.162148 -29.339682 -2.865359 13.758666 -51.686160 -1.254068 0.000000 0.000000 0.000000 22.693061 15.833542 -3.956224 40.030782 -7.459297 -4.851797 29.422263 53.032741 10.585921 0.000000 0.000000 0.000000 
-0.254697 0.941319 0.799555 -3.146181 -54.449834 2.870711 7.906446 1.576959 -6.400661 -0.245401 8.295778 33.137830 0.238085 0.430167 10.343662 0.000000 0.000000 0.000000 -2.342212 1.483565 -12.588236 6.719113 0.899821 11.144847 -3.610756 -17.228068 15.930884 0.000000 0.000000 0.000000 -6.337214 1.749403 15.531367 12.587547 -2.718888 -19.483153 -2.031996 1.422193 29.001830 -7.110089 0.538832 -37.314659 0.000000 0.000000 0.000000 -39.097351 2.391245 12.087690 -30.344097 -28.791156 -3.563819 9.938767 -51.180292 0.407073 0.000000 0.000000 0.000000 21.001846 15.664266 -3.559263 39.127095 -7.428111 -4.874313 30.623558 51.755342 10.605175 0.000000 0.000000 0.000000 
-0.294114 0.942725 0.813395 -2.595875 -55.462117 1.282475 8.866065 2.607118 -12.672667 5.132291 11.946536 48.242090 -1.081530 -0.313874 17.046754 0.000000 0.000000 0.000000 -1.461702 0.818391 -8.141184 5.886980 0.842554 10.239512 -3.428638 -15.426687 13.576157 0.000000 0.000000 0.000000 -5.035211 1.609608 16.387862 11.790031 -2.592123 -20.105874 -1.718989 3.470076 29.674079 -7.560920 0.902204 -35.556325 0.000000 0.000000 0.000000 -41.523093 3.815398 11.330273 -31.667049 -26.658211 -4.414547 5.984156 -50.960683 2.401346 0.000000 0.000000 0.000000 21.107435 15.838173 -3.116848 37.181949 -7.446517 -4.606477 29.752045 49.281176 9.987031 0.000000 0.000000 0.000000 
-0.331925 0.946178 0.829523 -1.825826 -57.033070 0.585171 7.591098 3.169594 -17.689903 7.062372 13.109567 53.137775 1.950855 4.465253 18.771297 0.000000 0.000000 0.000000 -1.182605 0.479622 -4.692900 5.136286 0.743726 8.816705 -2.587012 -13.540098 12.643148 0.000000 0.000000 0.000000 -4.265891 1.307495 15.456897 10.659148 -2.688110 -18.589194 -0.622900 5.968465 29.130835 -6.680460 0.694662 -32.448760 0.000000 0.000000 0.000000 -42.476013 3.273808 11.263240 -33.056461 -24.085033 -4.822192 4.093378 -49.539673 2.952217 0.000000 0.000000 0.000000 20.735921 15.391760 -2.664350 36.354453 -6.966384 -4.507171 26.205871 47.773690 8.508432 0.000000 0.000000 0.000000 
-0.369055 0.949134 0.846896 -1.204193 -58.878105 -0.203030 5.955102 3.485461 -21.191610 5.310372 12.537525 49.039645 3.170331 5.572591 11.285397 0.000000 0.000000 0.000000 -1.560164 0.371178 -0.579656 5.256809 0.602281 6.505903 -1.429368 -11.645007 12.472727 0.000000 0.000000 0.000000 -4.244862 1.384336 15.638701 9.911215 -2.622620 -18.347649 0.071825 8.285571 29.136084 -6.935061 1.044561 -31.759665 0.000000 0.000000 0.000000 -42.388541 4.552392 9.592786 -35.064315 -21.601999 -5.315963 -0.172605 -51.485322 5.540558 0.000000 0.000000 0.000000 19.913906 14.780634 -2.321049 35.690822 -5.239266 -4.087793 22.502634 45.198999 6.717657 0.000000 0.000000 0.000000 
-0.406586 0.949468 0.865537 -1.434520 -59.688757 0.092538 4.567366 3.271585 -22.233155 -0.247996 9.816496 36.038296 4.649979 8.419336 4.166497 0.000000 0.000000 0.000000 -1.848383 0.541616 3.962251 6.062663 0.526962 2.956497 -0.754171 -10.741374 12.865325 0.000000 0.000000 0.000000 -3.782837 1.099008 14.415915 9.451914 -2.592086 -17.913631 0.244027 10.587422 29.547365 -7.345803 1.512221 -31.330692 0.000000 0.000000 0.000000 -42.653149 4.483752 9.006340 -35.392939 -20.493665 -5.475546 -1.776634 -51.990703 6.324316 0.000000 0.000000 0.000000 19.922622 13.814549 -2.330679 35.633263 -4.487504 -4.073979 19.024101 43.627617 5.418866 0.000000 0.000000 0.000000 
-0.444374 0.946580 0.884674 -1.526698 -60.427589 0.403479 3.076480 2.636421 -21.762400 -4.525767 4.086857 15.481107 9.942961 13.799725 14.414129 0.000000 0.000000 0.000000 -1.324925 0.786398 7.933518 5.355964 0.459585 0.982136 -0.689174 -9.462741 11.256720 0.000000 0.000000 0.000000 -4.425380 1.177631 13.906373 9.073400 -2.517419 -17.862367 1.056017 12.038696 29.578092 -7.101186 1.509715 -31.881729 0.000000 0.000000 0.000000 -42.025694 4.674580 8.113391 -36.658952 -19.271710 -5.549433 -2.581778 -54.256752 7.302018 0.000000 0.000000 0.000000 20.154964 13.862668 -2.019447 35.304267 -3.660092 -3.880448 15.079316 41.924811 4.028485 0.000000 0.000000 0.000000 
-0.483096 0.940591 0.905210 -1.745320 -60.525638 1.031184 2.041465 2.002348 -20.689994 -4.644975 1.245794 -1.016280 13.645331 15.069856 28.037432 0.000000 0.000000 0.000000 -1.303613 1.216783 11.355565 5.796147 0.451748 0.464077 -0.999775 -7.970422 8.607111 0.000000 0.000000 0.000000 -4.661608 1.142032 13.269775 8.095346 -2.365931 -17.955739 1.270272 12.416455 29.837728 -7.707653 1.913207 -30.227112 0.000000 0.000000 0.000000 -41.437282 4.968040 7.586034 -37.289143 -18.994784 -5.504427 -2.163602 -56.700590 7.717375 0.000000 0.000000 0.000000 21.127148 13.717665 -2.362828 35.414054 -2.640403 -3.549505 14.232958 40.127763 3.674978 0.000000 0.000000 0.000000 
-0.524375 0.932328 0.928420 -2.886197 -60.417333 1.618569 0.907614 1.334038 -19.274697 -2.828689 0.731222 -7.246716 16.402668 17.032593 35.565078 0.000000 0.000000 0.000000 -0.795630 1.620925 14.587518 5.808626 0.378033 2.065259 -0.493454 -5.871482 6.778465 0.000000 0.000000 0.000000 -5.189744 1.253105 13.262471 7.320165 -2.244900 -18.212098 2.504727 13.632333 30.229338 -7.971337 2.253321 -30.792677 0.000000 0.000000 0.000000 -39.436503 3.948514 7.333059 -38.079492 -19.113346 -4.989628 -0.608857 -56.612246 6.818872 0.000000 0.000000 0.000000 22.183895 13.510045 -2.356525 35.517721 -2.239369 -3.479685 11.235391 40.370621 2.877416 0.000000 0.000000 0.000000 
-0.569668 0.925037 0.956068 -4.781144 -60.875538 2.736940 1.022598 1.106704 -17.546368 -1.805248 0.513750 -5.857308 19.553724 20.517800 36.373061 0.000000 0.000000 0.000000 -0.404934 2.107329 17.494411 6.510871 0.405591 5.258209 0.146732 -4.236604 5.888421 0.000000 0.000000 0.000000 -5.737951 1.094045 11.483988 5.945157 -2.102952 -17.621043 3.048659 13.334757 31.199078 -8.773910 2.518057 -31.837930 0.000000 0.000000 0.000000 -37.644411 3.383941 7.801792 -38.618119 -18.692269 -5.045381 4.295274 -55.059527 4.194453 0.000000 0.000000 0.000000 25.205204 15.004884 -2.805936 34.682098 -3.108774 -3.189873 8.925951 39.894971 2.169553 0.000000 0.000000 0.000000 
-0.616401 0.922044 0.987612 -5.517592 -60.763023 2.273129 1.449709 1.086416 -16.596579 -2.140604 0.714542 0.280532 21.307624 23.854921 32.606440 0.000000 0.000000 0.000000 -1.249240 2.543385 18.246421 7.574359 0.847593 12.784005 3.033358 -2.064843 8.525819 0.000000 0.000000 0.000000 -8.451191 1.391840 9.382561 7.227697 -2.387293 -15.740147 2.671164 12.880338 31.259747 -7.437742 1.745803 -29.594739 0.000000 0.000000 0.000000 -37.244889 3.829906 7.360959 -37.492198 -18.134983 -5.206264 4.558796 -53.838838 3.969354 0.000000 0.000000 0.000000 26.155405 14.187393 -3.660598 35.031900 -2.652721 -2.951215 10.427007 40.030762 2.595094 0.000000 0.000000 0.000000 
-0.658895 0.926071 1.020145 -4.605546 -60.083062 0.668510 1.458795 0.780636 -14.683775 -3.731356 1.614606 4.702268 21.246720 26.101779 27.775931 0.000000 0.000000 0.000000 -3.914564 1.949189 11.889796 11.487399 2.992185 28.552508 6.589372 -4.796400 20.082152 0.000000 0.000000 0.000000 -10.705462 1.808897 8.904722 6.823434 -2.452704 -14.295215 2.544539 11.636661 30.618681 -9.110470 2.730132 -29.110508 0.000000 0.000000 0.000000 -36.314172 2.762798 7.853849 -37.822378 -18.770175 -4.873308 8.011097 -51.836412 2.139223 0.000000 0.000000 0.000000 26.101879 15.508203 -2.691486 36.226947 -4.200212 -3.506859 10.705973 41.811651 2.757843 0.000000 0.000000 0.000000 
